<svg xmlns="http://www.w3.org/2000/svg" xmlns:xlink="http://www.w3.org/1999/xlink" width="28.5" height="39.349" viewBox="0 0 28.5 39.349">
  <defs>
    <clipPath id="clip-path">
      <path id="maps-and-flags" d="M84.85,0A14.269,14.269,0,0,0,70.6,14.25C70.6,24,83.351,38.323,83.9,38.922a1.278,1.278,0,0,0,1.906,0C86.349,38.315,99.1,24,99.1,14.25A14.269,14.269,0,0,0,84.85,0Z" transform="translate(-70.6 0)" fill="#eb5b25"/>
    </clipPath>
  </defs>
  <g id="Grupo_7889" data-name="Grupo 7889" transform="translate(-891 -1500.651)">
    <g id="Grupo_4" data-name="Grupo 4" transform="translate(393 1372.651)">
      <g id="Enmascarar_grupo_590" data-name="Enmascarar grupo 590" transform="translate(498 128)" clip-path="url(#clip-path)">
        <path id="maps-and-flags-2" data-name="maps-and-flags" d="M84.85,0A14.269,14.269,0,0,0,70.6,14.25C70.6,24,83.351,38.323,83.9,38.922a1.278,1.278,0,0,0,1.906,0C86.349,38.315,99.1,24,99.1,14.25A14.269,14.269,0,0,0,84.85,0Z" transform="translate(-70.6 0)" fill="#eb5b25"/>
        <g id="Grupo_7888" data-name="Grupo 7888" transform="translate(9.085 10.295)">
          <path id="maps-and-flags-3" data-name="maps-and-flags" d="M84.85,0A14.269,14.269,0,0,0,70.6,14.25C70.6,24,83.351,38.323,83.9,38.922a1.278,1.278,0,0,0,1.906,0C86.349,38.315,99.1,24,99.1,14.25A14.269,14.269,0,0,0,84.85,0Z" transform="translate(-79.685 -10.295)" fill="#eb5b25"/>
        </g>
      </g>
    </g>
    <g id="wheel" transform="translate(893.122 1503.044)">
      <path id="Trazado_7182" data-name="Trazado 7182" d="M11.831,0A11.831,11.831,0,1,0,23.662,11.831,11.869,11.869,0,0,0,11.831,0Zm0,22.276A10.445,10.445,0,1,1,22.276,11.831,10.456,10.456,0,0,1,11.831,22.276Zm0,0" fill="#fff"/>
      <path id="Trazado_7183" data-name="Trazado 7183" d="M104.348,97a7.348,7.348,0,1,0,7.348,7.348A7.357,7.357,0,0,0,104.348,97Zm0,8.873a1.525,1.525,0,1,1,1.525-1.525A1.527,1.527,0,0,1,104.348,105.873Zm-5.962-1.525a5.927,5.927,0,0,1,.488-2.36l2.679,1.547a2.9,2.9,0,0,0,0,1.627l-2.679,1.547A5.927,5.927,0,0,1,98.386,104.348Zm8.757-.813,2.679-1.547a5.955,5.955,0,0,1,0,4.72l-2.679-1.547a2.9,2.9,0,0,0,0-1.627Zm1.984-2.747-2.679,1.547a2.911,2.911,0,0,0-1.407-.814V98.427A5.963,5.963,0,0,1,109.127,100.788Zm-5.472-2.361v3.094a2.911,2.911,0,0,0-1.407.814l-2.679-1.547A5.963,5.963,0,0,1,103.655,98.427Zm-4.086,9.481,2.679-1.547a2.911,2.911,0,0,0,1.407.814v3.094A5.963,5.963,0,0,1,99.569,107.908Zm5.472,2.361v-3.094a2.911,2.911,0,0,0,1.407-.814l2.679,1.547A5.963,5.963,0,0,1,105.041,110.269Zm0,0" transform="translate(-92.517 -92.517)" fill="#fff"/>
    </g>
  </g>
</svg>
